<svg width="24" height="24" viewBox="0 0 24 24" fill="none" xmlns="http://www.w3.org/2000/svg">
<rect width="24" height="24" fill="#EA580C"/>
<path d="M13.7625 9.10356C13.7098 8.56706 13.4833 8.15028 13.0832 7.85321C12.6831 7.55614 12.1401 7.4076 11.4542 7.4076C10.9882 7.4076 10.5947 7.47411 10.2737 7.60713C9.95272 7.73571 9.7065 7.91528 9.53502 8.14584C9.36794 8.37641 9.28441 8.638 9.28441 8.93064C9.27561 9.17451 9.32618 9.38733 9.4361 9.56912C9.55041 9.75091 9.7065 9.90831 9.90435 10.0413C10.1022 10.1699 10.3308 10.283 10.5903 10.3805C10.8497 10.4736 11.1267 10.5534 11.4212 10.62L12.6348 10.9126C13.2239 11.0456 13.7647 11.223 14.2572 11.4447C14.7496 11.6664 15.1761 11.939 15.5366 12.2627C15.8972 12.5864 16.1764 12.9677 16.3742 13.4067C16.5765 13.8456 16.6798 14.3489 16.6842 14.9164C16.6798 15.75 16.4688 16.4727 16.0511 17.0846C15.6378 17.692 15.0398 18.1642 14.2572 18.5012C13.4789 18.8337 12.5402 19 11.441 19C10.3506 19 9.40092 18.8315 8.59191 18.4945C7.7873 18.1576 7.15856 17.6587 6.70569 16.9981C6.25721 16.333 6.02198 15.5105 6 14.5306H8.76339C8.79416 14.9873 8.92387 15.3686 9.1525 15.6746C9.38553 15.9761 9.69551 16.2044 10.0824 16.3596C10.4737 16.5104 10.9156 16.5857 11.4081 16.5857C11.8917 16.5857 12.3116 16.5148 12.6677 16.3729C13.0283 16.231 13.3075 16.0337 13.5053 15.781C13.7032 15.5283 13.8021 15.2378 13.8021 14.9097C13.8021 14.6038 13.712 14.3466 13.5317 14.1382C13.3558 13.9298 13.0964 13.7525 12.7535 13.6062C12.4149 13.4599 11.9994 13.3268 11.507 13.2071L10.0363 12.8347C8.89749 12.5553 7.99834 12.1186 7.33882 11.5245C6.6793 10.9303 6.35174 10.13 6.35614 9.12351C6.35174 8.29881 6.56938 7.57831 7.00906 6.962C7.45314 6.34569 8.0621 5.86461 8.83593 5.51877C9.60977 5.17292 10.4891 5 11.474 5C12.4765 5 13.3514 5.17292 14.0989 5.51877C14.8507 5.86461 15.4355 6.34569 15.8532 6.962C16.2709 7.57831 16.4864 8.29216 16.4995 9.10356H13.7625Z" fill="white"/>
</svg>
