<svg width="128" height="128" viewBox="0 0 128 128" fill="none" xmlns="http://www.w3.org/2000/svg">
<rect width="128" height="128" fill="#EA580C"/>
<path d="M82.3031 41.3629C81.8932 37.2625 80.1342 34.0771 77.0259 31.8067C73.9177 29.5362 69.6994 28.4009 64.371 28.4009C60.7504 28.4009 57.6934 28.9093 55.2 29.9259C52.7066 30.9086 50.7938 32.2811 49.4617 34.0432C48.1638 35.8054 47.5148 37.8048 47.5148 40.0413C47.4465 41.9051 47.8393 43.5318 48.6932 44.9211C49.5813 46.3105 50.7938 47.5135 52.3309 48.5302C53.8679 49.5129 55.644 50.377 57.6593 51.1226C59.6745 51.8342 61.8263 52.4442 64.1148 52.9525L73.542 55.1891C78.1189 56.2057 82.3202 57.5612 86.1457 59.2556C89.9712 60.95 93.2844 63.034 96.0852 65.5078C98.886 67.9816 101.055 70.896 102.592 74.2508C104.163 77.6057 104.966 81.4519 105 85.7895C104.966 92.1604 103.326 97.6841 100.081 102.361C96.8708 107.003 92.2255 110.612 86.1457 113.188C80.1 115.729 72.8076 117 64.2685 117C55.7977 117 48.42 115.712 42.1352 113.137C35.8846 110.561 31.0002 106.749 27.4821 101.7C23.9981 96.6166 22.1708 90.3305 22 82.8413H43.4673C43.7064 86.3317 44.714 89.2461 46.4901 91.5843C48.3004 93.8887 50.7084 95.6339 53.7142 96.8199C56.7541 97.9721 60.1868 98.5482 64.0123 98.5482C67.7696 98.5482 71.0315 98.006 73.7982 96.9216C76.599 95.8372 78.7679 94.3292 80.3049 92.3976C81.842 90.466 82.6105 88.2464 82.6105 85.7387C82.6105 83.4005 81.9103 81.435 80.5099 79.8423C79.1436 78.2496 77.1284 76.8941 74.4642 75.7758C71.8342 74.6575 68.6064 73.6409 64.7809 72.7259L53.3556 69.8793C44.5091 67.7444 37.5241 64.4065 32.4006 59.8656C27.2772 55.3246 24.7325 49.2079 24.7667 41.5154C24.7325 35.2123 26.4233 29.7056 29.8389 24.9953C33.2887 20.2849 38.0193 16.6081 44.0309 13.9648C50.0424 11.3216 56.8737 10 64.5247 10C72.3123 10 79.1095 11.3216 84.9161 13.9648C90.7568 16.6081 95.2996 20.2849 98.5444 24.9953C101.789 29.7056 103.463 35.1615 103.565 41.3629H82.3031Z" fill="white"/>
</svg>
