<svg width="256" height="256" viewBox="0 0 256 256" fill="none" xmlns="http://www.w3.org/2000/svg">
<rect width="256" height="256" fill="#EA580C"/>
<rect width="256" height="256" fill="#EA580C"/>
<path d="M165.333 83.8983C164.508 75.5443 160.969 69.0543 154.715 64.4285C148.461 59.8027 139.973 57.4898 129.252 57.4898C121.968 57.4898 115.817 58.5254 110.8 60.5967C105.783 62.5989 101.935 65.3951 99.2543 68.9853C96.6428 72.5755 95.337 76.6489 95.337 81.2057C95.1996 85.003 95.9899 88.317 97.708 91.1477C99.4949 93.9785 101.935 96.4295 105.027 98.5007C108.12 100.503 111.693 102.263 115.748 103.782C119.803 105.232 124.133 106.475 128.737 107.511L147.705 112.067C156.914 114.139 165.367 116.9 173.064 120.352C180.761 123.805 187.428 128.051 193.063 133.091C198.698 138.131 203.062 144.068 206.155 150.904C209.316 157.739 210.931 165.575 211 174.412C210.931 187.392 207.633 198.646 201.104 208.174C194.644 217.633 185.297 224.986 173.064 230.233C160.9 235.411 146.227 238 129.046 238C112.003 238 97.1582 235.376 84.513 230.129C71.9364 224.882 62.1088 217.115 55.0302 206.828C48.0204 196.471 44.3436 183.664 44 168.406H87.1932C87.6743 175.517 89.7016 181.455 93.2753 186.219C96.9177 190.913 101.763 194.469 107.81 196.886C113.927 199.233 120.834 200.407 128.531 200.407C136.091 200.407 142.654 199.302 148.22 197.093C153.856 194.883 158.22 191.811 161.312 187.876C164.405 183.94 165.951 179.418 165.951 174.309C165.951 169.545 164.542 165.54 161.725 162.295C158.976 159.051 154.921 156.289 149.56 154.01C144.269 151.732 137.774 149.661 130.077 147.797L107.089 141.997C89.2893 137.648 75.2352 130.847 64.9265 121.595C54.6179 112.344 49.4979 99.8815 49.5667 84.209C49.4979 71.3672 52.8998 60.1479 59.7722 50.5511C66.7134 40.9542 76.2317 33.4632 88.3272 28.0779C100.423 22.6926 114.167 20 129.562 20C145.231 20 158.907 22.6926 170.59 28.0779C182.342 33.4632 191.482 40.9542 198.011 50.5511C204.54 60.1479 207.907 71.2637 208.114 83.8983H165.333Z" fill="white"/>
</svg>
