<svg width="48" height="48" viewBox="0 0 48 48" fill="none" xmlns="http://www.w3.org/2000/svg">
<rect width="48" height="48" fill="#EA580C"/>
<path d="M31.0698 16.1382C30.9265 14.682 30.3119 13.5508 29.2259 12.7444C28.1399 11.9381 26.6661 11.5349 24.8043 11.5349C23.5393 11.5349 22.4712 11.7154 21.6 12.0765C20.7288 12.4255 20.0605 12.9129 19.5951 13.5387C19.1416 14.1645 18.9148 14.8746 18.9148 15.6689C18.8909 16.3308 19.0282 16.9085 19.3265 17.4019C19.6368 17.8953 20.0605 18.3226 20.5975 18.6836C21.1346 19.0326 21.7551 19.3395 22.4593 19.6043C23.1634 19.857 23.9152 20.0736 24.7148 20.2542L28.0086 21.0485C29.6078 21.4095 31.0757 21.8909 32.4123 22.4926C33.749 23.0944 34.9066 23.8345 35.8852 24.7131C36.8638 25.5916 37.6216 26.6266 38.1586 27.8181C38.7076 29.0095 38.9881 30.3755 39 31.9159C38.9881 34.1785 38.4152 36.1401 37.2815 37.801C36.1597 39.4497 34.5366 40.7314 32.4123 41.6461C30.3 42.5487 27.7521 43 24.7685 43C21.8088 43 19.2311 42.5427 17.0352 41.628C14.8512 40.7134 13.1447 39.3595 11.9154 37.5663C10.6981 35.761 10.0597 33.5286 10 30.8689H17.5006C17.5842 32.1085 17.9362 33.1435 18.5568 33.9739C19.1893 34.7922 20.0307 35.412 21.0809 35.8333C22.143 36.2424 23.3424 36.447 24.679 36.447C25.9918 36.447 27.1315 36.2545 28.0981 35.8694C29.0767 35.4842 29.8346 34.9487 30.3716 34.2627C30.9086 33.5767 31.1772 32.7884 31.1772 31.8979C31.1772 31.0675 30.9325 30.3694 30.4432 29.8038C29.9658 29.2382 29.2617 28.7568 28.3309 28.3596C27.4119 27.9625 26.2842 27.6014 24.9475 27.2765L20.9556 26.2656C17.8646 25.5074 15.4241 24.3219 13.634 22.7093C11.8438 21.0966 10.9547 18.9243 10.9667 16.1924C10.9547 13.9539 11.5455 11.9983 12.7389 10.3254C13.9442 8.65257 15.5971 7.34679 17.6975 6.40808C19.7979 5.46936 22.1848 5 24.858 5C27.579 5 29.9539 5.46936 31.9827 6.40808C34.0235 7.34679 35.6107 8.65257 36.7444 10.3254C37.8782 11.9983 38.463 13.9359 38.4988 16.1382H31.0698Z" fill="white"/>
</svg>
